<?xml version="1.0" encoding="utf-8"?>
<!-- Generator: Adobe Illustrator 16.0.0, SVG Export Plug-In . SVG Version: 6.00 Build 0)  -->
<!DOCTYPE svg PUBLIC "-//W3C//DTD SVG 1.1//EN" "http://www.w3.org/Graphics/SVG/1.1/DTD/svg11.dtd">
<svg version="1.1" id="Layer_1" xmlns="http://www.w3.org/2000/svg" xmlns:xlink="http://www.w3.org/1999/xlink" x="0px" y="0px"
	 width="1400px" height="980px" viewBox="0 0 1400 980" enable-background="new 0 0 1400 980" xml:space="preserve">
<g>
	<rect fill="#FFFFFF" width="1400" height="980"/>
	<g>
		<g>
			<path d="M739.906,711.256c-1.059-0.611-26.386-15.101-67.867-24.065c-38.14-8.243-97.813-13.147-165.512,10.301
				c-6.997,2.422-14.026,5.13-20.966,8.074l-18.958-18.353l-122.45,9.81l90.924,26.961l-18.209,9.43c0,0-32.065-28.374-64.221-4.257
				c0,0,33.557-3.059,25.793,10.678c0,0-14.641,27.902-56.913,7.927c0,0-24.923-42.189-80.021-1.38c0,0,33.42-7.707,44.062,6.007
				c0,0-6.655,40.328-74.904,19.773c0,0-70.903-2.695-91.89,47.293c0,0,24.329-27.576,62.475-21.637c0,0,19.919,17.104-18.622,20.66
				c0,0,2.466,28.389,60.841-5.087c0,0,36.574-15.612,42.319,5.229c0,0,1.353,18.793-26.501,19.177c0,0,28.935,19.747,70.489-21.893
				c0,0,24.73-15.785,32.488,0.239c0,0-2.932,14.923-23.311,17.753c0,0,27.154,20.984,74.221-19.623c0,0,12.595,2.262,1.482,13.849
				c-2.887,3.012-12.118,11.461-12.118,11.461s19.11,2.769,42.891-26.215l4.214,0.783c0.612,0.114,9.732,1.809,20.049,3.523
				l-64.042,45.054l102.503-16.309l15.606-18.773c14.527,1.568,55.862,3.664,107.615-14.26c0.003,0-0.002,0.002,0.001,0
				c48.307-16.729,92.288-46.209,130.71-87.607l8.005-8.627L739.906,711.256z"/>
			<path fill="#939598" d="M671.01,697.797c0,0-4.654,6.768-2.654,17.859c0,0,41.485-0.375,66.389,2.416
				C734.744,718.072,694.913,699.83,671.01,697.797z"/>
			<path fill="#FFFFFF" d="M546.888,769.824c8.947,1.185,19.221,2.865,25.094,4.894l-9.173,9.783l29.947-3.913l-10.037,8.919
				l26.727-7.096l-3.58,7.01l23.18-3.315l-37.131,13.472l4.286-7.561l-25.423,6.318l4.263-8.933l-24.258,0.667l6.24-9.894
				l-23.691-1.993c8.266,26.73,46.88,31.306,46.88,31.306c34.824,2.302,71.193-32.723,71.193-32.723
				C626.885,763.133,573.064,766.945,546.888,769.824z"/>
			<path fill="#FFFFFF" d="M580.202,722.177c0.013,0.034,0.035,0.065,0.047,0.102c0.716,2.065-0.379,4.318-2.444,5.032
				c-2.064,0.716-4.318-0.377-5.034-2.442c-0.134-0.39-0.186-0.781-0.198-1.173c-3.247,1.158-5.611,2.551-5.611,2.551
				c5.032,8.725,20.422-1.519,20.422-1.519C585.404,722.821,582.84,722.162,580.202,722.177z"/>
			<polygon fill="#ED1C24" points="439.998,710.229 380.747,699.877 375.171,700.089 441.985,715.968 			"/>
			<polygon fill="#ED1C24" points="469.702,830.81 414.422,849.953 412.094,851.359 483.083,837.821 499.851,817.652 
				484.029,814.249 			"/>
			<path fill="#ED1C24" d="M443.346,707.136l4.44,10.211l0.219,0.051l3.075,8.88l-3.535,1.828c-2.3,5.232-8.103,22.802-0.797,54.973
				c10.148,5.662,36.565,16.711,85.94,14.931c-8.888-7.163-11.174-14.419-11.174-14.419c-5.8-9.286-27.765-2.162-27.765-2.162
				c39.451-45.963,169.162-16.284,181.64-13.302c0.199-0.069,0.404-0.141,0.604-0.21c-27.114-32.286-18.067-63.638-14.03-73.691
				c-41.475-7.97-97.527-9.44-160.094,14.107c-4.339,1.752-8.927,3.597-13.331,5.364c-1.55,0.665-3.099,1.325-4.657,2.021
				l-0.114-0.102c-10.191,4.088-18.365,7.356-18.365,7.356c4.829-4.311,10.115-7.666,15.159-10.262l-17.61-15.955l-79.589,3.024
				L443.346,707.136z M572.336,704.441l23.034,11.097c0,0,1.041-4.989-3.05-8.655c0,0,8.742,3.393,8.708,9.218
				c0.702,34.061-39.47,31.648-43.936,21.47c17.731,6.125,27.889-1.502,32.887-7.726c-3.821,2.013-9.35,3.911-16.774,3.999
				c-4.046,0.047-9.499-0.828-16.584-6.617c0,0,11.434-15.589,31.596-7.896l-15.07-7.01c0,0-12.252-2.343-23.752,9.544
				C549.396,721.864,547.143,704.63,572.336,704.441z"/>
			<path fill="#939598" d="M425.318,739.617c0,0-7.43,42.346,6.043,65.298c0,0,5.973,1.111,13.751,2.45
				c-12.911-36.921-11.281-60.881-8.164-73.771L425.318,739.617z"/>
		</g>
		<g>
			<path d="M1239.836,185.005c0,0-28.601-16.775-73.054-27.524c-29.962-19.621-57.009-15.674-76.198-8.765
				c-93.62,0.043-177.034,66.701-177.034,66.701l-14.102-12.534l-22.522,19.977l0.588,18.41l-46.222,3.133l-19.583,20.368
				l41.519,18.801l20.368-10.184l0.784,10.184h-12.926c0,0-2.029,3.913-3.132,9.676c-0.251,0-43.295,0.013-46.613,40.462
				c0,0-32.121,6.268-23.503,39.954c0,0-20.761,26.243,14.885,54.054c0,0,25.852,26.635,3.132,48.571
				c0,0,44.171-19.585,15.034-59.538c0,0-13.167-9.401,0-23.502c0,0,29.621,4.699,32.755-23.895c0,0,25.812-1.407,27.091-24.169
				l5.028,36.312l26.243-19.585c0,0,10.969-35.645,14.886-39.17l12.926-5.092l20.368,8.618l21.543-11.751l-3.525-11.75
				c0,0,83.035-13.49,110.069-14.493c41.993-1.558,97.477-29.01,151.195-73.443l19.39-16.452L1239.836,185.005z"/>
			<polygon fill="#ED1C24" points="884.516,224.67 898.322,210.569 908.262,220.508 903.169,225.845 896.388,219.083 			"/>
			<polygon fill="#ED1C24" points="824.145,263.889 837.804,250.522 913.452,240.534 902.289,249.641 841.184,254.929 			"/>
			<path fill="#ED1C24" d="M934.703,287.098c0,0-25.461,52.879-28.595,69.331l-14.688,12.926l9.989-14.101
				c0,0,6.127-31.956,17.094-56.633L934.703,287.098z"/>
			<path fill="#ED1C24" d="M948.118,315.447l12.926,5.728l13.953-8.813l-1.468-6.757
				C973.529,305.605,957.665,309.718,948.118,315.447z"/>
			<g>
				<path fill="#808285" d="M886.899,316.58l4.521-5.588c0,0-9.599-1.958-15.081-21.152h-3.096
					C872.376,294.992,871.803,308.47,886.899,316.58z"/>
				<path fill="#808285" d="M868.439,289.839h-2.871c0,0-8.228,24.678,15.079,34.47l3.252-4.021
					C869.349,312.019,867.129,298.516,868.439,289.839z"/>
			</g>
			<path fill="#ED1C24" d="M1160.712,167.476c-22.325-15.515-48.178-15.907-68.937-7.29c-44.166,0.149-75.206,5.484-166.473,59.147
				l-19.978,15.277l16.45-1.959c0,0,30.161-14.003,45.73-14.443c0,0-29.977,11.566-43.952,21.114l-41.34,34.066
				c0,0,0.393,23.502,16.06,30.944c0,0,30.945-23.501,43.088-23.893l4.309,4.308l-0.07,0.146
				c19.092-6.934,79.187-28.131,112.487-32.682c0,0,21.749,16.462,49.85,18.82c6.336-1.674,13.405-3.711,20.961-6.163
				c-50.172,2.99-82.952-35.351-82.952-35.351c-7.05,0.783-17.822,7.834-17.822,7.834c8.03-14.885,22.132-20.369,22.132-20.369
				c66.075-30.691,138.475,9.177,149.396,15.601c10.514-6.618,20.683-14.133,30.002-22.652l13.71-11.359
				C1243.362,198.573,1212.037,178.61,1160.712,167.476z M1157.682,187.605c-27.317,31.923-43.09-1.174-43.09-1.174
				c7.243,8.359,14.776,9.923,21.068,8.953c-4.34-1.365-8.869-4.809-13.133-11.696l-2.841-6.267c0,0-6.267-7.442-11.75-3.525
				c0,0,12.925-19.977,37.993,0c0,0,13.412,10.821,22.72,10.968C1164.042,189.711,1157.682,187.605,1157.682,187.605z
				 M1200.274,197.588l-5.679-1.471c0,0,20.172-8.151,21.349,5.378C1215.944,201.495,1208.697,207.572,1200.274,197.588z"/>
			<path fill="#FFFFFF" d="M1060.34,225.405c0,0,59.048-23.796,127.792,12.338l-16.746,6.757l-4.406-10.87l-19.976,5.875
				l0.293-8.397l-24.97,4.165l0.587-7.812l-14.978,5.582v-7.638l-15.869,5.704l-0.587-5.998l-12.633,5.998l-1.469-4.235
				l-12.339,3.938l-4.7-4.232"/>
			<path fill="#FFFFFF" d="M1142.976,184.291c-0.826,1.284-2.262,2.14-3.901,2.14c-2.567,0-4.648-2.081-4.648-4.646
				c0-0.82,0.23-1.579,0.604-2.249c-2.922-1.921-5.064-3.485-5.064-3.485c1.588,20.992,18.214,10.38,18.214,10.38
				C1146.74,186.094,1144.913,185.298,1142.976,184.291z"/>
		</g>
		<g>
			<path d="M617.069,511.372c0,0,18.669-23.336-4.243-36.065c0,0-13.578-10.184-27.58-5.092c0,0-3.819-8.486-14.85-9.334
				c0,0-11.72-0.425-14.134,7.637c0,0,7.344-22.574-19.387-35.26c0,0-12.889-7.255-22.992,0c0,0-34.046,31.813-39.905-22.965
				c3.648-0.655,7.253-1.454,10.434-2.426l7.686-2.349l-2.631-15.783l3.113-0.742l1.875-4.013c0.35-0.749,2.795-6.058,6.151-14.805
				c7.209,3.419,15.084,8.69,23.218,15.583c8.992,7.624,14.958,14.395,15.018,14.461l11.513,13.126l4.269-16.931
				c14.325-56.805-23.529-97.946-32.93-107.095c2.106-15.019,3.278-30.983,2.823-47.271c-0.02-2.203-0.434-28.059-8.725-59.869
				c-11.394-43.714-32.441-77.721-60.868-98.346l-5.384-3.907l-5.384,3.907c-28.426,20.625-49.474,54.632-60.868,98.346
				c-8.291,31.81-8.705,57.667-8.725,59.869c-0.454,16.288,0.717,32.253,2.824,47.271c-9.401,9.149-47.254,50.29-32.93,107.095
				l4.27,16.931l11.513-13.126c0.06-0.066,6.025-6.837,15.018-14.461c8.133-6.894,16.009-12.165,23.219-15.583
				c3.355,8.747,5.802,14.056,6.151,14.805l1.875,4.013l3.113,0.742l-2.631,15.783l7.686,2.349c2.735,0.835,5.784,1.542,8.903,2.141
				c-5.769,55.179-39.937,23.25-39.937,23.25c-10.103-7.255-22.992,0-22.992,0c-26.731,12.687-19.386,35.26-19.386,35.26
				c-2.415-8.062-14.134-7.637-14.134-7.637c-11.032,0.849-14.851,9.334-14.851,9.334c-14.002-5.091-27.58,5.092-27.58,5.092
				c-22.913,12.729-4.243,36.065-4.243,36.065c-31.823,8.91-19.518,35.644-19.518,35.644h187.046h1.562h187.047
				C636.588,547.016,648.892,520.282,617.069,511.372z"/>
			<path fill="#A7A9AC" d="M443.158,96.532c0,0-33.356,23.953-46.183,70.971l19.613-4.414
				C416.588,163.09,421.764,126.909,443.158,96.532z"/>
			<path fill="#ED1C24" d="M384.899,327.289c-12.907,6.465-26.637,41.585-26.637,41.585c1.77-31.354,16.339-47.827,23.667-54.2
				c-0.979-4.51-1.902-9.157-2.741-13.932c-12.227,13.74-37.174,48.486-25.84,93.429c0,0,19.594-22.334,41.94-32.635
				C391.994,352.248,388.274,340.59,384.899,327.289z"/>
			<path fill="#A7A9AC" d="M455.923,96.532c0,0,33.356,23.953,46.183,70.971l-19.613-4.414
				C482.493,163.09,477.317,126.909,455.923,96.532z"/>
			<path fill="#ED1C24" d="M514.182,327.289c12.907,6.465,26.637,41.585,26.637,41.585c-1.77-31.354-16.338-47.827-23.667-54.2
				c0.979-4.51,1.902-9.157,2.739-13.932c12.228,13.74,37.176,48.486,25.842,93.429c0,0-19.595-22.334-41.94-32.635
				C507.088,352.248,510.808,340.59,514.182,327.289z"/>
			<path fill="#ED1C24" d="M515.349,242.211c0,0-0.165-30.413-10.688-65.812c-0.051-0.022-14.933-6.536-55.121-8.896
				c-40.188,2.361-55.069,8.874-55.119,8.896c-10.525,35.399-10.689,65.812-10.689,65.812
				c-2.038,71.99,29.203,138.888,29.203,138.888s2.541,0.5,8.283,1.332c-26.747-53.907-24.243-104.388-24.243-104.388
				c11.126,58.632,34.185,96.095,41.274,106.576c3.38,0.391,7.136,0.804,11.291,1.233c4.156-0.43,7.911-0.842,11.292-1.233
				c7.089-10.481,30.146-47.943,41.273-106.576c0,0,2.504,50.481-24.243,104.388c5.742-0.833,8.284-1.332,8.284-1.332
				S517.388,314.202,515.349,242.211z"/>
			<path fill="#A7A9AC" d="M449.541,394.172c0,0-17.247-0.934-30.899-2.829l-1.293,7.754c12.225,3.736,32.192,4.754,32.192,4.754
				s19.967-1.018,32.192-4.754l-1.292-7.754C466.789,393.238,449.541,394.172,449.541,394.172z"/>
			<circle cx="449.541" cy="247.56" r="49.389"/>
			<circle fill="#FFFFFF" cx="449.541" cy="247.56" r="37.667"/>
			<g>
				<defs>
					<circle id="SVGID_1_" cx="449.541" cy="247.56" r="37.667"/>
				</defs>
				<clipPath id="SVGID_2_">
					<use xlink:href="#SVGID_1_"  overflow="visible"/>
				</clipPath>
				
					<rect x="383.459" y="222.637" transform="matrix(0.7083 -0.706 0.706 0.7083 -35.6771 372.1923)" clip-path="url(#SVGID_2_)" width="98.037" height="13.249"/>
				
					<rect x="395.044" y="238.884" transform="matrix(0.7083 -0.706 0.706 0.7083 -41.428 384.1474)" clip-path="url(#SVGID_2_)" width="98.037" height="6.625"/>
				
					<rect x="402.573" y="248.448" transform="matrix(0.7083 -0.706 0.706 0.7083 -44.5435 391.656)" clip-path="url(#SVGID_2_)" width="98.037" height="2.546"/>
				
					<rect x="415.039" y="262.156" transform="matrix(0.7083 -0.706 0.706 0.7083 -50.183 404.2923)" clip-path="url(#SVGID_2_)" width="98.037" height="1.411"/>
				
					<rect x="421.105" y="265.726" transform="matrix(0.7083 -0.706 0.706 0.7083 -51.4688 409.8374)" clip-path="url(#SVGID_2_)" width="98.037" height="2.929"/>
			</g>
		</g>
		<g>
			<path d="M1246.834,785.59l6.224,2.444c-12.706-36.081-39.98-41.916-39.98-41.916l-0.007,0.006
				c0.912-3.24,1.56-6.663,1.865-10.282l-20.024-4.435c1.935-7.247,2.095-12.358,2.095-12.358
				c-4.672-8.959-9.557-17.258-14.58-24.973l20.709,2.736l45.838,22.236c-15.885-28.138-48.561-61.822-48.561-61.822l-49.494-2.843
				c-7.035-7.261-14.071-13.628-20.952-19.207c8.921-8.335,40.039-23.876,40.039-23.876c-45.38-17.431-97.429-9.426-97.443-9.422
				c-9.454-3.473-15.194-4.565-15.194-4.565c-12.707-29.954-53.205-12.644-53.205-12.644c-31.314-10.785-79.052-6.802-106.694-1.773
				c-37.443,6.806-72.843,35.398-72.843,35.398c58.095,73.069,142.962,80.332,142.962,80.332
				c41.77,6.3,76.257,17.479,103.552,29.452l17.172,44.979l61.725,45.837c0,0-22.693-38.576-24.055-41.981
				c-1.361-3.403-1.361-3.403-1.361-3.403l-4.084-18.812c19.248,12.654,28.818,22.215,28.818,22.215
				c4.797-1.269,9.083-2.912,12.965-4.81l-0.038,0.047l9.766,18.379c0,0,1.665-0.718,4.317-2.161l-0.008,0.006
				c4.653,18.152,0,36.193,0,36.193l9.616-5.673c0.825,14.977-7.687,31.202-7.687,31.202l8.112-2.659
				c-5.315,6.072-12.484,13.368-19.685,17.976c3.113,0.571,5.834,0.72,8.039,0.686c-14.575,10.645-32.887,17.695-32.887,17.695
				h12.447c-19.209,8.811-38.315,11.343-38.315,11.343c27.815,7.75,49.386,5.597,65.95-1.129l-3.32,6.065
				c12.094-3.67,21.405-9.09,28.592-15.282v4.906c18.479-11.688,26.583-29.292,28.251-42.663l2.724,8.849
				c9.819-12.818,9.535-29.913,9.353-41.723l5.512,6.323C1254.003,806.308,1250.127,793.576,1246.834,785.59z"/>
			<path fill="#ED1C24" d="M1086.27,607.629c0,0,41.072-5.218,70.572,5.222c0,0-35.4-1.816-51.512,4.084L1086.27,607.629z"/>
			<polygon fill="#ED1C24" points="1084.227,735.136 1095.345,767.384 1130.745,798.927 1103.967,767.031 1099.167,741.479 			"/>
			<polygon fill="#ED1C24" points="1160.277,664.589 1197.006,664.589 1231.386,702.37 1194.965,674.119 1170.005,674.119 			"/>
			<path fill="#808285" d="M1193.376,737.102l15.432,5.548c0,0-10.663,28.816-32.223,37.668c0,0,16.791-14.748,22.011-30.407
				l-8.398-4.989L1193.376,737.102z"/>
			<path fill="#ED1C24" d="M1056.535,605.425c0.312,8.06-2.149,8.786-2.149,8.786c-1.85-13.563-11.054-19.923-12.779-21.008
				c-16.114-9.763-36.577,1.265-36.577,1.265c-106.881-18.379-160.662,23.827-160.662,23.827
				c6.394,8.897,14.22,16.936,22.975,24.155c0.35-0.114,113.075-37.696,190.108,10.339c0,0,4.992,6.352,6.353,19.513
				c0,0-8.622-14.066-14.068-14.066c0,0-24.658,33.116-73.49,31.781c5.649,1.021,10.98,1.777,15.853,2.257
				c6.57,0.645,13.001,1.556,19.288,2.684c11.025-3.312,24.801-9.481,34.265-20.838c0,0-1.6,4.497-5.739,9.866
				c10.092,2.583,82.858,22.469,112.394,65.927c0,0-31.021-33.11-122.197-56.521h0.001c-2.051,1.443-4.339,2.794-6.889,3.974
				c77.424,17.678,129.539,66.957,129.539,66.957c22.124-3.352,36.761-41.867,36.761-41.867
				C1139.871,637.761,1074.19,611.248,1056.535,605.425z"/>
			<path fill="#FFFFFF" d="M884.988,651.88c6.62,5.923,14.616,10.878,22.849,14.982c13.229-4.721,58.101-18.573,102.979-7.656
				c0,0-33.379,0.012-80.9,16.764c15.484,5.281,27.8,7.51,27.8,7.51c59.228,3.122,81.012-29.33,81.012-29.33
				C977.117,623.288,884.988,651.88,884.988,651.88z"/>
			<path d="M1024.433,605.196c4.423-3.568,14.295,3.115,14.295,3.115c-15.316-28.024-37.101,4.539-37.101,4.539
				c-5.787,1.132-10.893-4.539-10.893-4.539c0.624,1.529,1.315,2.937,2.055,4.241l-0.017-0.01c0,0,11.235,27.276,34.893,14.771
				c0,0-7.753,2.239-15.828-1.192c7.086,0.946,13.757-1.297,17.019-4.763C1034.803,615.038,1024.433,605.196,1024.433,605.196z"/>
			<path fill="#FFFFFF" d="M1019.555,608.765l-3.188,1.843c0.363,0.643,0.577,1.411,0.577,2.243c0,2.253-1.562,4.084-3.49,4.084
				c-1.523,0-2.807-1.152-3.282-2.748l-4.46,2.577C1026.645,625.273,1019.555,608.765,1019.555,608.765z"/>
			<path d="M881.811,616.082c0,0,20.764-17.869,29.612-7.146C911.423,608.936,926.74,624.252,881.811,616.082z"/>
		</g>
	</g>
</g>
</svg>
